<svg width="25" height="24" viewBox="0 0 25 24" fill="none" xmlns="http://www.w3.org/2000/svg">
<path d="M23.8863 10.4388C23.8855 10.4383 23.885 10.4376 23.8844 10.437L13.8708 0.647278C13.444 0.229797 12.8765 0 12.2729 0C11.6692 0 11.1018 0.229797 10.6748 0.647278L0.666388 10.4321C0.663017 10.4354 0.659459 10.4388 0.656275 10.4421C-0.220223 11.304 -0.218725 12.7024 0.660583 13.5621C1.06231 13.955 1.5927 14.1824 2.15999 14.2064C2.18322 14.2086 2.20644 14.2097 2.22985 14.2097H2.62877V21.4142C2.62877 22.84 3.81541 24 5.27381 24H9.19145C9.58869 24 9.91063 23.6851 9.91063 23.2969V17.6484C9.91063 16.9979 10.4521 16.4687 11.1175 16.4687H13.4282C14.0937 16.4687 14.6349 16.9979 14.6349 17.6484V23.2969C14.6349 23.6851 14.9569 24 15.3541 24H19.2717C20.7303 24 21.9168 22.84 21.9168 21.4142V14.2097H22.2869C22.8903 14.2097 23.4578 13.9799 23.885 13.5623C24.7652 12.7013 24.7656 11.3004 23.8863 10.4388ZM22.8678 12.568C22.7126 12.7198 22.5062 12.8035 22.2869 12.8035H21.1976C20.8004 12.8035 20.4784 13.1182 20.4784 13.5066V21.4142C20.4784 22.0646 19.9372 22.5938 19.2717 22.5938H16.0733V17.6484C16.0733 16.2226 14.8868 15.0624 13.4282 15.0624H11.1175C9.65892 15.0624 8.47228 16.2226 8.47228 17.6484V22.5938H5.27381C4.60857 22.5938 4.06713 22.0646 4.06713 21.4142V13.5066C4.06713 13.1182 3.74518 12.8035 3.34795 12.8035H2.27742C2.26618 12.8027 2.25513 12.8022 2.24371 12.802C2.02946 12.7983 1.8285 12.7152 1.67792 12.5678C1.35766 12.2547 1.35766 11.7451 1.67792 11.4318C1.67773 11.432 1.67811 11.4318 1.67792 11.4318L11.6921 1.64154C11.8472 1.48975 12.0534 1.40625 12.2729 1.40625C12.4922 1.40625 12.6984 1.48975 12.8536 1.64154L22.8646 11.4289C22.8661 11.4304 22.8678 11.4318 22.8693 11.4333C23.1879 11.7469 23.1873 12.2554 22.8678 12.568Z" fill="#F69707"/>
</svg>
